<svg width="387" height="255" viewBox="0 0 387 255" fill="none" xmlns="http://www.w3.org/2000/svg">
<g id="logo-2021">
<g id="Frame" clip-path="url(#clip0)">
<g id="Group">
<path id="Vector" d="M26.2007 223.165C30.8601 222.558 32.7508 218.168 32.7508 213.982V206.621C32.7508 199.261 27.5512 195.074 18.7051 195.074H3.37637V253.688H18.5701C27.4837 253.688 33.156 249.501 33.156 242.141V232.484C33.0885 227.96 31.3328 223.976 26.2007 223.165ZM13.1003 203.38H18.5701C21.3387 203.38 23.0944 204.798 23.0944 207.904V214.657C23.0944 217.763 21.3387 219.181 18.5701 219.181H13.1003V203.38V203.38ZM23.3645 240.723C23.3645 243.829 21.6088 245.247 18.8402 245.247H13.0328V227.42H18.8402C21.6088 227.42 23.3645 228.838 23.3645 231.944V240.723V240.723Z" fill="white"/>
<path id="Vector_2" d="M118.106 194.331H117.43C108.517 194.331 102.709 198.045 102.709 206.756V241.938C102.709 251.054 108.584 254.363 117.43 254.363H118.106C126.952 254.363 132.827 250.987 132.827 241.938V223.503H117.43V231.741H123.103V240.452C123.103 244.639 120.942 245.787 117.768 245.787C114.594 245.787 112.433 244.639 112.433 240.452V208.309C112.433 204.123 114.594 202.975 117.768 202.975C120.942 202.975 123.103 204.123 123.103 208.309V215.197H132.827V206.824C132.894 198.045 127.019 194.331 118.106 194.331Z" fill="white"/>
<path id="Vector_3" d="M179.083 240.452C179.083 244.639 177.26 245.787 174.086 245.787C170.912 245.787 169.089 244.639 169.089 240.452V195.074H159.365V242.006C159.365 251.122 165.037 254.431 173.951 254.431H174.288C183.202 254.431 188.874 251.054 188.874 242.006V195.074H179.15V240.452H179.083Z" fill="white"/>
<path id="Vector_4" d="M50.0379 228.162H63.4083V219.654H50.0379V203.582H66.0419V195.006H40.3139V253.688H66.2444V245.112H50.0379V228.162Z" fill="white"/>
<path id="Vector_5" d="M217.574 229.108L206.229 195.006H197.045V253.688H206.094V217.831L214.873 245.112H220.342L229.121 217.831V253.688H238.507V195.006H228.986L217.574 229.108Z" fill="white"/>
<path id="Vector_6" d="M82.8562 195.006H73.1323V253.688H97.8473V244.909H82.8562V195.006Z" fill="white"/>
<path id="Vector_7" d="M150.789 195.006H141.065V253.62H150.789V195.006Z" fill="white"/>
<path id="Vector_8" d="M141.808 129.775H141.673C132.759 129.775 126.952 133.489 126.952 142.2V177.382C126.952 186.498 132.827 189.807 141.673 189.807H141.808C150.721 189.807 156.529 186.43 156.529 177.382V165.227H146.805V175.896C146.805 180.015 144.779 181.231 141.673 181.231C138.566 181.231 136.541 179.948 136.541 175.896V143.753C136.541 139.634 138.566 138.418 141.673 138.418C144.779 138.418 146.805 139.701 146.805 143.753V152.937H156.529V142.2C156.596 133.421 150.721 129.775 141.808 129.775Z" fill="white"/>
<path id="Vector_9" d="M185.16 154.895H174.018V130.45H164.294V189.064H174.018V163.606H185.16V189.064H194.884V130.45H185.16V154.895Z" fill="white"/>
<path id="Vector_10" d="M83.1264 180.556H66.8522V163.606H80.2227V155.098H66.8522V138.959H82.8562V130.45H57.1283V189.064H83.1264V180.556Z" fill="white"/>
<path id="Vector_11" d="M296.986 153.342V142.808C296.986 133.894 291.111 130.383 282.265 130.383H267.071V188.997H276.795V165.632H281.657L289.085 188.997H298.944L290.571 164.146C294.622 162.458 296.986 158.947 296.986 153.342ZM287.262 151.991C287.262 156.178 285.101 157.326 281.927 157.326H276.795V138.959H281.927C285.101 138.959 287.262 140.107 287.262 144.293V151.991Z" fill="white"/>
<path id="Vector_12" d="M112.028 189.064H121.887L113.514 164.214C117.565 162.458 119.861 158.947 119.861 153.342V142.808C119.861 133.894 113.986 130.383 105.14 130.383H89.9466V188.996H99.6706V165.632H104.533L112.028 189.064ZM99.6706 138.959H104.803C107.976 138.959 110.137 140.107 110.137 144.293V151.924C110.137 156.111 107.976 157.259 104.803 157.259H99.6706V138.959Z" fill="white"/>
<path id="Vector_13" d="M243.977 163.606H257.347V155.098H243.977V138.959H259.981V130.45H234.253V189.064H260.183V180.556H243.977V163.606Z" fill="white"/>
<path id="Vector_14" d="M52.1312 130.45H43.0825L38.2206 172.317L30.6575 130.45H21.9464L14.3834 172.317L9.52138 130.45H0L9.18374 189.064H18.7051L26.2007 148.885L33.7637 189.064H42.88L52.1312 130.45Z" fill="white"/>
<path id="Vector_15" d="M219.397 189.064V138.959H229.188V130.45H199.881V138.959H209.673V189.064H219.397Z" fill="white"/>
<path id="Vector_16" d="M28.7667 74.4024V65.8939H3.37637V124.508H13.1003V99.4551H26.1331V90.8791H13.1003V74.4024H28.7667Z" fill="white"/>
<path id="Vector_17" d="M79.9525 125.183H80.0876C89.0012 125.183 94.606 122.009 94.606 112.961V104.52C94.606 98.2396 91.2296 95.606 85.6248 92.4322L78.737 88.5831C75.9684 86.9625 74.9555 85.6794 74.9555 82.6407V78.5891C74.9555 74.8751 77.0489 73.592 79.885 73.592C82.7212 73.592 84.8145 74.9426 84.8145 78.5891V86.8274H94.3359V77.306C94.3359 68.595 87.9883 65.2186 79.9525 65.2186H79.8175C71.7817 65.2186 65.4341 68.595 65.4341 77.306V85.0042C65.4341 91.1492 68.6754 93.7827 74.4153 97.0916L81.168 100.941C84.0717 102.561 85.0171 104.047 85.0171 107.086V111.678C85.0171 115.256 82.9237 116.877 80.0201 116.877C77.1164 116.877 75.023 115.256 75.023 111.678V102.831H65.4341V113.028C65.4341 122.077 71.0389 125.183 79.9525 125.183Z" fill="white"/>
<path id="Vector_18" d="M107.706 124.508H117.43V74.4024H127.222V65.8939H97.9148V74.4024H107.706V124.508Z" fill="white"/>
<path id="Vector_19" d="M59.9644 74.4024V65.8939H34.2364V124.508H60.2345V115.932H43.9604V99.0499H57.3984V90.4739H43.9604V74.4024H59.9644Z" fill="white"/>
<path id="Vector_20" d="M242.491 115.797H227.5V65.8939H217.844V124.508H242.491V115.797Z" fill="white"/>
<path id="Vector_21" d="M180.366 65.8939H170.98L164.227 109.314L157.407 65.8939H147.548L158.555 124.508H169.291L180.366 65.8939Z" fill="white"/>
<path id="Vector_22" d="M142.348 65.8939H132.624V124.508H142.348V65.8939Z" fill="white"/>
<path id="Vector_23" d="M347.159 88.7182V78.2515C347.159 69.3378 341.284 65.8264 332.438 65.8264H317.244V124.44H326.968V101.076H331.83L339.258 124.44H349.117L340.811 99.5901C344.795 97.8344 347.159 94.323 347.159 88.7182ZM337.435 87.3677C337.435 91.5544 335.274 92.7023 332.1 92.7023H326.968V74.3349H332.1C335.274 74.3349 337.435 75.4828 337.435 79.6695V87.3677Z" fill="white"/>
<path id="Vector_24" d="M277.605 89.3935V78.2515C277.605 69.3378 271.731 65.8264 262.884 65.8264H247.691V124.44H257.415V101.751H262.884C271.731 101.819 277.605 98.3071 277.605 89.3935ZM267.882 87.9079C267.882 92.0946 265.721 93.2426 262.547 93.2426H257.415V74.4024H262.547C265.721 74.4024 267.882 75.5504 267.882 79.7371V87.9079Z" fill="white"/>
<path id="Vector_25" d="M289.085 65.8939L278.213 124.508H287.6L289.693 111.407H300.43L302.523 124.508H312.382L301.308 65.8939H289.085V65.8939ZM290.976 103.372L295.095 77.3061L299.214 103.372H290.976Z" fill="white"/>
<path id="Vector_26" d="M203.055 124.508H212.914L201.907 65.8939H189.685L178.813 124.508H188.199L190.292 111.407H201.029L203.055 124.508ZM191.508 103.372L195.627 77.3061L199.746 103.372H191.508Z" fill="white"/>
<path id="Vector_27" d="M374.778 87.9079L386.055 65.8939H375.79L364.716 92.2296V65.8939H355.06V124.508H364.716V107.558L369.105 99.0499L377.141 124.508H387L374.778 87.9079Z" fill="white"/>
<g id="Group_2">
<path id="Vector_28" d="M5.60478 59.884V7.8878C7.3605 6.06456 8.98116 3.83615 9.72396 1H14.9911V59.884H5.60478Z" fill="#00FFFF"/>
<path id="Vector_29" d="M48.6198 33.6158H22.0815V25.9176H48.6198V33.6158Z" fill="#00FFFF"/>
<path id="Vector_30" d="M81.8433 38.0726H86.03V46.3109H81.8433V59.8164H72.457V46.3109H55.6426V37.8025L69.2157 1H81.8433V38.0726ZM63.0031 38.0726H72.3895V10.3863L63.0031 38.0726Z" fill="#00FFFF"/>
<path id="Vector_31" d="M110.07 45.7032V1H119.794V47.3914C119.794 56.4401 113.716 59.8164 104.803 59.8164H101.089V51.0379H104.6C107.909 51.1054 110.07 49.9574 110.07 45.7032Z" fill="#00FFFF"/>
<path id="Vector_32" d="M157.542 48.0666C157.542 57.1153 151.802 60.4917 142.888 60.4917H142.551C133.637 60.4917 127.897 57.1829 127.897 48.0666V1H137.621V46.581C137.621 50.7677 139.444 51.9832 142.686 51.9832C145.859 51.9832 147.75 50.8353 147.75 46.581V1H157.474V48.0666H157.542Z" fill="#00FFFF"/>
<path id="Vector_33" d="M190.563 59.884H165.78V1H175.504V51.1054H190.563V59.884Z" fill="#00FFFF"/>
<path id="Vector_34" d="M207.579 59.884H197.856V38.9504L185.971 1H196.235L202.785 28.3486L209.335 1H219.397L207.512 38.9504V59.884H207.579Z" fill="#00FFFF"/>
</g>
</g>
</g>
</g>
<defs>
<clipPath id="clip0">
<rect width="387" height="253.296" fill="white" transform="translate(0 1)"/>
</clipPath>
</defs>
</svg>
